# xmcd CD database file
#
# Track frame offsets:
#	183
#	13570
#	27045
#	41008
#	52795
#	67445
#	81158
#	92658
#	104083
#	117870
#	132558
#	146583
#	160095
#	174633
#	189133
#	204358
#	216270
#
# Disc length: 3154 seconds
#
# Revision: 0
# Processed by: cddbd v1.5.1PL0 Copyright (c) Steve Scherf et al.
# Submitted via: CDex 1.51
#
DISCID=ed0c5011
DTITLE=Benny Carter - Dizionario Enciclopedico del Jazz
DYEAR=1992
DGENRE=Jazz
TTITLE0=Gin And Jive
TTITLE1=Nagasaki
TTITLE2=There's A Small Hotel (strum.)
TTITLE3=I'm In The Mood For Swing
TTITLE4=Rambling In
TTITLE5=Black Bottom
TTITLE6=Rambler's Rhythm
TTITLE7=New Street Swing
TTITLE8=I'm Coming Virginia
TTITLE9=Farewell Blues
TTITLE10=Blue Light Blues
TTITLE11=Sleep
TTITLE12=Among My Souvenirs
TTITLE13=Fish Fry
TTITLE14=Slow Freight
TTITLE15=Smack
TTITLE16=I Surrender, Dear
EXTD=YEAR: 1992
EXTT0=
EXTT1=
EXTT2=
EXTT3=
EXTT4=
EXTT5=
EXTT6=
EXTT7=
EXTT8=
EXTT9=
EXTT10=
EXTT11=
EXTT12=
EXTT13=
EXTT14=
EXTT15=
EXTT16=
PLAYORDER=
